<?xml version="1.0" standalone="no"?>
<!DOCTYPE svg PUBLIC "-//W3C//DTD SVG 20010904//EN"
 "http://www.w3.org/TR/2001/REC-SVG-20010904/DTD/svg10.dtd">
<svg version="1.0" xmlns="http://www.w3.org/2000/svg"
 width="512.000000pt" height="512.000000pt" viewBox="0 0 512.000000 512.000000"
 preserveAspectRatio="xMidYMid meet">
<metadata>
Created by potrace 1.11, written by Peter Selinger 2001-2013
</metadata>
<g transform="translate(0.000000,512.000000) scale(0.100000,-0.100000)"
fill="#000000" stroke="none">
<path d="M791 4579 c-100 -20 -190 -91 -234 -187 l-22 -47 0 -1785 0 -1785 26
-55 c32 -69 90 -129 155 -160 l49 -25 1790 0 1790 0 56 26 c69 33 124 88 158
159 l26 55 0 1780 0 1780 -29 63 c-34 74 -103 141 -174 169 -45 17 -123 18
-1797 19 -962 1 -1770 -2 -1794 -7z m2523 -1114 c47 -20 113 -96 126 -146 30
-112 -12 -226 -104 -284 -43 -26 -59 -30 -120 -30 -60 0 -78 5 -118 28 -52 32
-102 99 -112 152 -8 40 4 36 -241 90 -158 35 -215 42 -215 28 0 -7 -50 -253
-71 -348 -5 -22 -14 -65 -20 -95 -6 -30 -15 -73 -19 -95 -5 -22 -11 -57 -15
-77 l-8 -38 49 0 c123 -1 374 -59 504 -117 112 -51 125 -57 130 -62 3 -4 19
-13 35 -21 17 -8 47 -25 68 -39 l37 -24 40 27 c22 14 46 26 54 26 8 0 18 5 21
10 8 12 189 13 213 1 9 -5 30 -15 46 -22 43 -20 107 -89 136 -145 33 -65 40
-189 15 -264 -19 -58 -84 -145 -126 -169 -26 -14 -29 -21 -29 -68 l0 -53 -320
0 c-207 0 -320 4 -320 10 0 6 4 10 9 10 5 0 22 25 36 55 22 45 27 65 23 109
-10 116 -96 199 -207 199 -79 0 -129 -29 -181 -103 -38 -54 -32 -198 10 -240
42 -42 55 -40 -325 -40 l-356 0 21 28 c34 42 50 90 50 146 -1 122 -87 211
-205 211 -105 0 -181 -64 -207 -173 -9 -41 -8 -58 7 -101 9 -28 28 -65 42 -81
l25 -30 -316 0 -316 0 0 349 0 349 25 16 c38 25 188 22 246 -5 24 -12 52 -28
62 -37 16 -15 21 -14 55 3 20 11 39 22 42 25 3 3 19 12 35 20 17 8 32 17 35
21 12 12 187 86 250 105 150 44 307 73 403 74 26 0 47 4 47 8 0 4 11 62 25
127 14 66 37 176 51 245 15 69 30 143 35 165 12 54 29 141 36 187 7 46 43 88
75 88 22 -1 42 -5 158 -30 30 -7 74 -16 98 -21 23 -5 61 -13 85 -18 23 -6 56
-13 72 -16 17 -3 47 -11 68 -17 37 -11 38 -11 73 31 73 84 175 109 278 66z"/>
</g>
</svg>
